<?xml version="1.0" encoding="UTF-8" standalone="no"?><svg xmlns="http://www.w3.org/2000/svg" xmlns:xlink="http://www.w3.org/1999/xlink" contentScriptType="application/ecmascript" contentStyleType="text/css" height="718px" preserveAspectRatio="none" style="width:421px;height:718px;" version="1.1" viewBox="0 0 421 718" width="421px" zoomAndPan="magnify"><defs><filter height="300%" id="f1x2rfdxlj0egz" width="300%" x="-1" y="-1"><feGaussianBlur result="blurOut" stdDeviation="2.0"/><feColorMatrix in="blurOut" result="blurOut2" type="matrix" values="0 0 0 0 0 0 0 0 0 0 0 0 0 0 0 0 0 0 .4 0"/><feOffset dx="4.0" dy="4.0" in="blurOut2" result="blurOut3"/><feBlend in="SourceGraphic" in2="blurOut3" mode="normal"/></filter></defs><g><rect fill="#FFFFFF" filter="url(#f1x2rfdxlj0egz)" height="551.2578" style="stroke: #A80036; stroke-width: 1.0;" width="10" x="62" y="85.7266"/><rect fill="#FFFFFF" filter="url(#f1x2rfdxlj0egz)" height="422.7266" style="stroke: #A80036; stroke-width: 1.0;" width="10" x="232" y="172.125"/><line style="stroke: #A80036; stroke-width: 1.0; stroke-dasharray: 5.0,5.0;" x1="67" x2="67" y1="54.5938" y2="662.1172"/><line style="stroke: #A80036; stroke-width: 1.0; stroke-dasharray: 5.0,5.0;" x1="237" x2="237" y1="54.5938" y2="662.1172"/><rect fill="#FEFECE" filter="url(#f1x2rfdxlj0egz)" height="46.5938" style="stroke: #A80036; stroke-width: 1.5;" width="102" x="14" y="3"/><text fill="#000000" font-family="sans-serif" font-size="14" lengthAdjust="spacingAndGlyphs" textLength="81" x="24.5" y="22.9951">gRPC Client</text><text fill="#000000" font-family="sans-serif" font-size="14" lengthAdjust="spacingAndGlyphs" textLength="88" x="21" y="39.292">(Pipe Server)</text><rect fill="#FEFECE" filter="url(#f1x2rfdxlj0egz)" height="46.5938" style="stroke: #A80036; stroke-width: 1.5;" width="102" x="14" y="661.1172"/><text fill="#000000" font-family="sans-serif" font-size="14" lengthAdjust="spacingAndGlyphs" textLength="81" x="24.5" y="681.1123">gRPC Client</text><text fill="#000000" font-family="sans-serif" font-size="14" lengthAdjust="spacingAndGlyphs" textLength="88" x="21" y="697.4092">(Pipe Server)</text><rect fill="#FEFECE" filter="url(#f1x2rfdxlj0egz)" height="46.5938" style="stroke: #A80036; stroke-width: 1.5;" width="100" x="185" y="3"/><text fill="#000000" font-family="sans-serif" font-size="14" lengthAdjust="spacingAndGlyphs" textLength="86" x="192" y="22.9951">gRPC Server</text><text fill="#000000" font-family="sans-serif" font-size="14" lengthAdjust="spacingAndGlyphs" textLength="83" x="193.5" y="39.292">(Pipe Client)</text><rect fill="#FEFECE" filter="url(#f1x2rfdxlj0egz)" height="46.5938" style="stroke: #A80036; stroke-width: 1.5;" width="100" x="185" y="661.1172"/><text fill="#000000" font-family="sans-serif" font-size="14" lengthAdjust="spacingAndGlyphs" textLength="86" x="192" y="681.1123">gRPC Server</text><text fill="#000000" font-family="sans-serif" font-size="14" lengthAdjust="spacingAndGlyphs" textLength="83" x="193.5" y="697.4092">(Pipe Client)</text><rect fill="#FFFFFF" filter="url(#f1x2rfdxlj0egz)" height="551.2578" style="stroke: #A80036; stroke-width: 1.0;" width="10" x="62" y="85.7266"/><rect fill="#FFFFFF" filter="url(#f1x2rfdxlj0egz)" height="422.7266" style="stroke: #A80036; stroke-width: 1.0;" width="10" x="232" y="172.125"/><polygon fill="#A80036" points="50,81.7266,60,85.7266,50,89.7266,54,85.7266" style="stroke: #A80036; stroke-width: 1.0;"/><line style="stroke: #A80036; stroke-width: 1.0;" x1="3" x2="56" y1="85.7266" y2="85.7266"/><text fill="#000000" font-family="sans-serif" font-size="13" lengthAdjust="spacingAndGlyphs" textLength="40" x="10" y="80.6606">spawn</text><line style="stroke: #A80036; stroke-width: 1.0;" x1="72" x2="114" y1="129.9922" y2="129.9922"/><line style="stroke: #A80036; stroke-width: 1.0;" x1="114" x2="114" y1="129.9922" y2="142.9922"/><line style="stroke: #A80036; stroke-width: 1.0;" x1="73" x2="114" y1="142.9922" y2="142.9922"/><polygon fill="#A80036" points="83,138.9922,73,142.9922,83,146.9922,79,142.9922" style="stroke: #A80036; stroke-width: 1.0;"/><text fill="#000000" font-family="sans-serif" font-size="13" lengthAdjust="spacingAndGlyphs" textLength="146" x="79" y="109.7935">create the named pipe</text><text fill="#000000" font-family="sans-serif" font-size="13" lengthAdjust="spacingAndGlyphs" textLength="115" x="79" y="124.9263">and start listening</text><polygon fill="#A80036" points="220,168.125,230,172.125,220,172.125" style="stroke: #A80036; stroke-width: 1.0;"/><line style="stroke: #A80036; stroke-width: 1.0;" x1="72" x2="231" y1="172.125" y2="172.125"/><text fill="#000000" font-family="sans-serif" font-size="13" lengthAdjust="spacingAndGlyphs" textLength="40" x="79" y="167.0591">spawn</text><line style="stroke: #A80036; stroke-width: 1.0;" x1="72" x2="114" y1="216.3906" y2="216.3906"/><line style="stroke: #A80036; stroke-width: 1.0;" x1="114" x2="114" y1="216.3906" y2="229.3906"/><line style="stroke: #A80036; stroke-width: 1.0;" x1="73" x2="114" y1="229.3906" y2="229.3906"/><polygon fill="#A80036" points="83,225.3906,73,229.3906,83,233.3906,79,229.3906" style="stroke: #A80036; stroke-width: 1.0;"/><text fill="#000000" font-family="sans-serif" font-size="13" lengthAdjust="spacingAndGlyphs" textLength="120" x="79" y="196.1919">wait for connection</text><text fill="#000000" font-family="sans-serif" font-size="13" lengthAdjust="spacingAndGlyphs" textLength="118" x="79" y="211.3247">to the named pipe</text><line style="stroke: #A80036; stroke-width: 1.0;" x1="242" x2="284" y1="258.5234" y2="258.5234"/><line style="stroke: #A80036; stroke-width: 1.0;" x1="284" x2="284" y1="258.5234" y2="271.5234"/><line style="stroke: #A80036; stroke-width: 1.0;" x1="243" x2="284" y1="271.5234" y2="271.5234"/><polygon fill="#A80036" points="253,267.5234,243,271.5234,253,275.5234,249,271.5234" style="stroke: #A80036; stroke-width: 1.0;"/><text fill="#000000" font-family="sans-serif" font-size="13" lengthAdjust="spacingAndGlyphs" textLength="160" x="249" y="253.4575">start gRPC server service</text><polygon fill="#A80036" points="83,326.9219,73,330.9219,83,330.9219" style="stroke: #A80036; stroke-width: 1.0;"/><line style="stroke: #A80036; stroke-width: 1.0;" x1="72" x2="231" y1="330.9219" y2="330.9219"/><text fill="#000000" font-family="sans-serif" font-size="13" lengthAdjust="spacingAndGlyphs" textLength="75" x="89" y="295.5903">notify ready</text><text fill="#000000" font-family="sans-serif" font-size="13" lengthAdjust="spacingAndGlyphs" textLength="89" x="89" y="310.7231">by connecting</text><text fill="#000000" font-family="sans-serif" font-size="13" lengthAdjust="spacingAndGlyphs" textLength="118" x="89" y="325.856">to the named pipe</text><line style="stroke: #A80036; stroke-width: 1.0;" x1="242" x2="284" y1="360.0547" y2="360.0547"/><line style="stroke: #A80036; stroke-width: 1.0;" x1="284" x2="284" y1="360.0547" y2="373.0547"/><line style="stroke: #A80036; stroke-width: 1.0;" x1="243" x2="284" y1="373.0547" y2="373.0547"/><polygon fill="#A80036" points="253,369.0547,243,373.0547,253,377.0547,249,373.0547" style="stroke: #A80036; stroke-width: 1.0;"/><text fill="#000000" font-family="sans-serif" font-size="13" lengthAdjust="spacingAndGlyphs" textLength="74" x="249" y="354.9888">wait forever</text><line style="stroke: #A80036; stroke-width: 1.0;" x1="72" x2="114" y1="402.1875" y2="402.1875"/><line style="stroke: #A80036; stroke-width: 1.0;" x1="114" x2="114" y1="402.1875" y2="415.1875"/><line style="stroke: #A80036; stroke-width: 1.0;" x1="73" x2="114" y1="415.1875" y2="415.1875"/><polygon fill="#A80036" points="83,411.1875,73,415.1875,83,419.1875,79,415.1875" style="stroke: #A80036; stroke-width: 1.0;"/><text fill="#000000" font-family="sans-serif" font-size="13" lengthAdjust="spacingAndGlyphs" textLength="105" x="79" y="397.1216">start gRPC client</text><polygon fill="#A80036" points="220,440.3203,230,444.3203,220,444.3203" style="stroke: #A80036; stroke-width: 1.0;"/><line style="stroke: #A80036; stroke-width: 1.0;" x1="72" x2="231" y1="444.3203" y2="444.3203"/><text fill="#000000" font-family="sans-serif" font-size="13" lengthAdjust="spacingAndGlyphs" textLength="113" x="79" y="439.2544">call gRPC function</text><polygon fill="#A80036" points="83,474.4531,73,474.4531,83,478.4531" style="stroke: #A80036; stroke-width: 1.0;"/><line style="stroke: #A80036; stroke-width: 1.0; stroke-dasharray: 2.0,2.0;" x1="72" x2="231" y1="473.4531" y2="473.4531"/><text fill="#000000" font-family="sans-serif" font-size="13" lengthAdjust="spacingAndGlyphs" textLength="102" x="89" y="468.3872">return message</text><line style="stroke: #A80036; stroke-width: 1.0;" x1="72" x2="114" y1="502.5859" y2="502.5859"/><line style="stroke: #A80036; stroke-width: 1.0;" x1="114" x2="114" y1="502.5859" y2="515.5859"/><line style="stroke: #A80036; stroke-width: 1.0;" x1="73" x2="114" y1="515.5859" y2="515.5859"/><polygon fill="#A80036" points="83,511.5859,73,515.5859,83,519.5859,79,515.5859" style="stroke: #A80036; stroke-width: 1.0;"/><text fill="#000000" font-family="sans-serif" font-size="13" lengthAdjust="spacingAndGlyphs" textLength="108" x="79" y="497.52">close gRPC client</text><polygon fill="#A80036" points="220,555.8516,230,559.8516,220,559.8516" style="stroke: #A80036; stroke-width: 1.0;"/><line style="stroke: #A80036; stroke-width: 1.0;" x1="72" x2="231" y1="559.8516" y2="559.8516"/><text fill="#000000" font-family="sans-serif" font-size="13" lengthAdjust="spacingAndGlyphs" textLength="130" x="79" y="539.6528">notify quit by closing</text><text fill="#000000" font-family="sans-serif" font-size="13" lengthAdjust="spacingAndGlyphs" textLength="101" x="79" y="554.7856">the named pipe</text><line style="stroke: #A80036; stroke-width: 1.0;" x1="242" x2="284" y1="593.9844" y2="593.9844"/><line style="stroke: #A80036; stroke-width: 1.0;" x1="284" x2="284" y1="593.9844" y2="606.9844"/><line style="stroke: #A80036; stroke-width: 1.0;" x1="237" x2="284" y1="606.9844" y2="606.9844"/><polygon fill="#A80036" points="247,602.9844,237,606.9844,247,610.9844,243,606.9844" style="stroke: #A80036; stroke-width: 1.0;"/><text fill="#000000" font-family="sans-serif" font-size="13" lengthAdjust="spacingAndGlyphs" textLength="23" x="249" y="588.9185">exit</text><line style="stroke: #A80036; stroke-width: 2.0;" x1="228" x2="246" y1="592.8516" y2="610.8516"/><line style="stroke: #A80036; stroke-width: 2.0;" x1="228" x2="246" y1="610.8516" y2="592.8516"/><line style="stroke: #A80036; stroke-width: 1.0;" x1="72" x2="114" y1="636.1172" y2="636.1172"/><line style="stroke: #A80036; stroke-width: 1.0;" x1="114" x2="114" y1="636.1172" y2="649.1172"/><line style="stroke: #A80036; stroke-width: 1.0;" x1="67" x2="114" y1="649.1172" y2="649.1172"/><polygon fill="#A80036" points="77,645.1172,67,649.1172,77,653.1172,73,649.1172" style="stroke: #A80036; stroke-width: 1.0;"/><text fill="#000000" font-family="sans-serif" font-size="13" lengthAdjust="spacingAndGlyphs" textLength="23" x="79" y="631.0513">exit</text><line style="stroke: #A80036; stroke-width: 2.0;" x1="58" x2="76" y1="634.9844" y2="652.9844"/><line style="stroke: #A80036; stroke-width: 2.0;" x1="58" x2="76" y1="652.9844" y2="634.9844"/><!--
@startuml
participant "gRPC Client\n(Pipe Server)" as gRPCClient
participant "gRPC Server\n(Pipe Client)" as gRPCServer


[-> gRPCClient : spawn
activate gRPCClient

gRPCClient -> gRPCClient : create the named pipe\nand start listening

gRPCClient -\ gRPCServer : spawn
activate gRPCServer

gRPCClient -> gRPCClient : wait for connection\nto the named pipe

gRPCServer -> gRPCServer : start gRPC server service

gRPCServer -\ gRPCClient : notify ready\nby connecting\nto the named pipe

gRPCServer -> gRPCServer : wait forever

gRPCClient -> gRPCClient : start gRPC client

gRPCClient -\ gRPCServer : call gRPC function
gRPCClient \- - gRPCServer : return message

gRPCClient -> gRPCClient : close gRPC client

gRPCClient -\ gRPCServer : notify quit by closing\nthe named pipe

gRPCServer -> gRPCServer : exit
deactivate gRPCServer
destroy gRPCServer

gRPCClient -> gRPCClient : exit
deactivate gRPCClient
destroy gRPCClient
@enduml

PlantUML version 1.2019.00(Sun Jan 13 15:46:42 UTC 2019)
(GPL source distribution)
Java Runtime: Java(TM) SE Runtime Environment
JVM: Java HotSpot(TM) 64-Bit Server VM
Java Version: 1.7.0_25-b15
Operating System: Linux
Default Encoding: UTF-8
Language: en
Country: US
--></g></svg>